<svg xmlns="http://www.w3.org/2000/svg" width="133.686" height="133.687" viewBox="0 0 133.686 133.687"><defs><style>.a{fill:#f0bc5e;}</style></defs><g transform="translate(-1 -1)"><path d="M37.85,58.317a15.094,15.094,0,1,0-17.638,0A28.067,28.067,0,0,0,1,84.906V100H57.062V84.906A28.067,28.067,0,0,0,37.85,58.317ZM18.25,46.094A10.781,10.781,0,1,1,29.031,56.875,10.793,10.793,0,0,1,18.25,46.094Zm3.234,38.812H18.25V76.281H31.187V95.687H28.3a7.546,7.546,0,0,0-6.818-10.781ZM52.75,95.687H44.125V76.281H39.812V95.687H35.5V71.968H13.937V84.906H9.625v4.312H21.484a3.234,3.234,0,1,1,0,6.469H5.312V84.906a23.719,23.719,0,1,1,47.437,0Z" transform="translate(0 34.687)"/><path d="M73.85,58.317a15.094,15.094,0,1,0-17.638,0A28.067,28.067,0,0,0,37,84.906V100H93.062V84.906A28.067,28.067,0,0,0,73.85,58.317ZM54.25,46.094A10.781,10.781,0,1,1,65.031,56.875,10.793,10.793,0,0,1,54.25,46.094Zm3.234,38.812H54.25V76.281H67.187V95.687H64.3a7.546,7.546,0,0,0-6.818-10.781ZM88.75,95.687H80.125V76.281H75.812V95.687H71.5V71.968H49.937V84.906H45.625v4.312H57.484a3.234,3.234,0,1,1,0,6.469H41.312V84.906a23.719,23.719,0,0,1,47.437,0Z" transform="translate(41.624 34.687)"/><path d="M58.576,7.085A21.409,21.409,0,0,0,42.9,1.009,21.7,21.7,0,0,0,22,22.64a21.392,21.392,0,0,0,8.547,17.09,5.905,5.905,0,0,1,2.234,4.724v1.826a10.781,10.781,0,1,0,21.562,0V44.616a6.511,6.511,0,0,1,2.544-5.125A21.538,21.538,0,0,0,58.576,7.085Zm-8.545,39.2a6.469,6.469,0,0,1-12.937,0V44.455c0-.112-.015-.22-.019-.33H50.059c-.006.164-.028.326-.028.492ZM54.223,36.1a11.042,11.042,0,0,0-3.045,3.713h-5.46V29.031H41.406V39.812H36.022a9.8,9.8,0,0,0-2.872-3.519,17.1,17.1,0,0,1-6.837-13.671,17.354,17.354,0,0,1,16.715-17.3c.179-.006.358-.009.537-.009A17.233,17.233,0,0,1,54.223,36.1Z" transform="translate(24.281 0)"/><path class="a" d="M36.625,24.25a8.625,8.625,0,1,1,8.625-8.625A8.634,8.634,0,0,1,36.625,24.25Z" transform="translate(31.218 6.938)"/><path d="M60.011,37.979a44.972,44.972,0,0,0-14-23.9l2.879-3.213A49.27,49.27,0,0,1,64.223,37.05Z" transform="translate(52.043 11.409)"/><path d="M46.585,14.566c-1.016-.789-2.081-1.548-3.17-2.255l2.348-3.618c1.192.774,2.359,1.6,3.472,2.471Z" transform="translate(49.042 8.894)"/><path d="M13.754,37.979,9.543,37.05A49.292,49.292,0,0,1,24.876,10.867l2.879,3.213a44.98,44.98,0,0,0-14,23.9Z" transform="translate(9.878 11.409)"/><path d="M20.536,14.566l-2.65-3.4C19,10.3,20.165,9.468,21.358,8.692l2.348,3.618c-1.087.707-2.154,1.466-3.17,2.255Z" transform="translate(19.524 8.894)"/><path d="M27,33H48.562v4.312H27Z" transform="translate(30.062 37)"/><g transform="translate(13.937 46.281)"><path class="a" d="M57.469,22a6.469,6.469,0,1,0,6.469,6.469A6.477,6.477,0,0,0,57.469,22Z" transform="translate(43.874 -22)"/><path class="a" d="M13.469,22a6.469,6.469,0,1,0,6.469,6.469A6.477,6.477,0,0,0,13.469,22Z" transform="translate(-7 -22)"/><path class="a" d="M42.469,31a6.469,6.469,0,1,0,6.469,6.469A6.477,6.477,0,0,0,42.469,31Z" transform="translate(26.531 -11.594)"/><path class="a" d="M28.469,31a6.469,6.469,0,1,0,6.469,6.469A6.477,6.477,0,0,0,28.469,31Z" transform="translate(10.343 -11.594)"/></g></g></svg>