<svg xmlns="http://www.w3.org/2000/svg" width="140.34" height="140.34" viewBox="0 0 140.34 140.34"><defs><style>.a{fill:#f0bc5e;}</style></defs><g transform="translate(-1 -1)"><path d="M125.674,71.473,110,64.157a4.548,4.548,0,0,1-2.61-4.1V57.215a30.508,30.508,0,0,0,7.381-8.681H118.7a9.046,9.046,0,0,0,6.431-15.417,11.262,11.262,0,0,0-4.244-17.595,11.332,11.332,0,0,0-13.375-9.778,11.26,11.26,0,0,0-18.366,0,10.724,10.724,0,0,0-2.135-.217,11.333,11.333,0,0,0-11.241,10,11.286,11.286,0,0,0-4.593,3.635,29.42,29.42,0,0,0-56.6,11.268V53.061A11.331,11.331,0,0,0,25.9,64.379H34.41a4.494,4.494,0,0,1-2.069,2.039l-16.97,7.92A24.99,24.99,0,0,0,1,96.9v5.958H40.515L20.648,121.02a11.691,11.691,0,1,0,16.517,16.517l21.354-23.353-3.343-3.056L33.821,134.483a7.163,7.163,0,1,1-10.12-10.12l23.29-21.289-1.931-2.112v-2.63H19.108V89.278H14.581v9.054H5.527V96.9A20.445,20.445,0,0,1,17.284,78.443l10.129-4.729L31.372,91.53,45.605,77.3l-1.6-1.6,1.6-1.6-7.332-7.332a9.052,9.052,0,0,0,1.193-4.278,29.561,29.561,0,0,0,3.744,1.75l.795.3.8-.3a29.627,29.627,0,0,0,3.751-1.745,8.951,8.951,0,0,0,.819,3.633l4.106-1.906a4.444,4.444,0,0,1-.419-1.9V59.479A30.508,30.508,0,0,0,60.443,50.8h3.936a8.961,8.961,0,0,0,4.527-1.259v3.522a6.816,6.816,0,0,1-.921,3.42L71.9,58.759a11.33,11.33,0,0,0,1.535-5.7V47.276a8.961,8.961,0,0,0,4.527,1.259H81.9a30.544,30.544,0,0,0,7.381,8.681v2.841a4.521,4.521,0,0,1-1.041,2.886l3.484,2.891a9.058,9.058,0,0,0,2.069-5.607,29.882,29.882,0,0,0,3.746,1.745l.8.3.8-.3a29.523,29.523,0,0,0,3.744-1.743,9.053,9.053,0,0,0,1.689,5.066l-9.876,8.233,14.07,10.553,3.472-13.887,11.533,5.383a22.7,22.7,0,0,1,13.052,20.494v2.264h-9.054V89.278h-4.527v9.054H97.273v4.527H141.34V96.069a27.239,27.239,0,0,0-15.666-24.6ZM25.9,59.852a6.8,6.8,0,0,1-6.791-6.791V49.539A8.961,8.961,0,0,0,23.635,50.8h3.936a30.45,30.45,0,0,0,7.381,8.683v.371ZM19.108,41.744a4.532,4.532,0,0,1,4.527-4.527h.048a29.835,29.835,0,0,0,1.8,9.054H23.635a4.532,4.532,0,0,1-4.527-4.527ZM40.807,75.7,34,82.5,31.617,71.752l2.635-1.229a8.886,8.886,0,0,0,.887-.493ZM59.852,35.985a25.773,25.773,0,0,1-15.845,23.7,25.769,25.769,0,0,1-15.845-23.7v-3.3a4.538,4.538,0,0,1,3.712-4.455A17.847,17.847,0,0,0,43.618,32.69H59.852Zm4.527,10.286H62.53a29.972,29.972,0,0,0,1.8-9.054h.048a4.527,4.527,0,0,1,0,9.054Zm4.527-12.323a8.961,8.961,0,0,0-4.527-1.259V28.163H43.618A13.283,13.283,0,0,1,34.29,24.3l-.663-.663H32.69a9.063,9.063,0,0,0-9.054,9.054,8.961,8.961,0,0,0-4.527,1.259V30.426a24.9,24.9,0,1,1,49.8,0Zm49.8,10.059h-1.849a29.973,29.973,0,0,0,1.8-9.054h.048a4.527,4.527,0,1,1,0,9.054Zm-40.744,0a4.527,4.527,0,1,1,0-9.054h.048a29.835,29.835,0,0,0,1.8,9.054Zm0-18.108v4.527a8.944,8.944,0,0,0-2.386.36,6.716,6.716,0,0,1,2.977-11.44l1.779-.453-.077-1.838a.689.689,0,0,0-.027-.217s0,0,0,.007A6.734,6.734,0,0,1,89.4,10.516l1.935.731.9-1.863a6.736,6.736,0,0,1,12.18,0l.9,1.863,1.935-.731a6.733,6.733,0,0,1,9.188,6.179l-.113,2.2,1.779.453a6.715,6.715,0,0,1,2.979,11.44,8.943,8.943,0,0,0-2.386-.36V25.9h-5.421a24.629,24.629,0,0,1-13.7-4.147l-1.254-.838-1.256.838A24.622,24.622,0,0,1,83.382,25.9Zm20.372,31.52a25.769,25.769,0,0,1-15.845-23.7v-3.3h.894a29.122,29.122,0,0,0,14.951-4.115,29.128,29.128,0,0,0,14.951,4.115h.894v3.3A25.771,25.771,0,0,1,98.332,57.419Zm7.687,18.95-4.038-3.029,6.057-5.045Z"/><path class="a" d="M49.69,88.379a31.69,31.69,0,1,1,31.69-31.69A31.724,31.724,0,0,1,49.69,88.379Zm0-52.061A20.372,20.372,0,1,0,70.061,56.69,20.394,20.394,0,0,0,49.69,36.318Z" transform="translate(21.48 30.325)"/><path d="M35.791,41.054a2.264,2.264,0,0,1,2.264,2.264h4.527a6.781,6.781,0,0,0-4.527-6.374V32H33.527v4.527H29v6.791a6.8,6.8,0,0,0,6.791,6.791,2.264,2.264,0,0,1,2.264,2.264v2.264H35.791a2.264,2.264,0,0,1-2.264-2.264H29a6.781,6.781,0,0,0,4.527,6.374V63.69h4.527V59.162h4.527V52.372a6.8,6.8,0,0,0-6.791-6.791,2.264,2.264,0,0,1-2.264-2.264V41.054Z" transform="translate(35.379 39.17)"/><path d="M44.635,29A22.635,22.635,0,1,0,67.271,51.635,22.661,22.661,0,0,0,44.635,29Zm0,40.744A18.108,18.108,0,1,1,62.744,51.635,18.129,18.129,0,0,1,44.635,69.744Z" transform="translate(26.534 35.379)"/></g></svg>