<svg xmlns="http://www.w3.org/2000/svg" width="147" height="146.34" viewBox="0 0 147 146.34"><defs><style>.a{fill:#f0bc5e;}</style></defs><g transform="translate(0 -0.121)"><path class="a" d="M234.238,413.364h66.089V392.121H281.444v9.441H238.959a4.719,4.719,0,0,0-4.721,4.721Zm0,0" transform="translate(-165.129 -276.344)"/><path class="a" d="M98.161,63.85a9.451,9.451,0,0,1-9.441-9.441v-23.6a30.684,30.684,0,1,0-61.368,0v23.6a9.451,9.451,0,0,1-9.441,9.441H14.426l3.384,8.464a12.732,12.732,0,0,0,7.313,7.18,14.232,14.232,0,0,1,3.151-1.306l17.962-4.9V64.415a18.838,18.838,0,0,1-7.081-14.728V35.526a4.719,4.719,0,0,1,4.721-4.721H72.2a4.719,4.719,0,0,1,4.721,4.721V49.688a18.841,18.841,0,0,1-7.081,14.728v8.875l17.963,4.9a14.117,14.117,0,0,1,3.115,1.32,12.726,12.726,0,0,0,7.348-7.2l3.384-8.462Zm0,0" transform="translate(-10.17)"/><path d="M418.238,416.121h4.721v4.721h-4.721Zm0,0" transform="translate(-294.841 -293.263)"/><path d="M142.279,150.408v4.721h-4.721v-2.36a7.089,7.089,0,0,0-7.081-7.081v-4.721a4.725,4.725,0,0,0-4.721-4.721H111.595a4.725,4.725,0,0,0-4.721,4.721v4.721H82.825a16.42,16.42,0,0,0-4.574-2.1l-16.223-4.426v-6.011a21.172,21.172,0,0,0,7.081-15.788V103.2a7.089,7.089,0,0,0-7.081-7.081H33.7a7.089,7.089,0,0,0-7.081,7.081v14.162A21.177,21.177,0,0,0,33.7,133.152v6.011l-16.221,4.426A16.536,16.536,0,0,0,5.8,155.521L0,178.732H76.19v7.081h4.721v-7.081h4.721v-9.441h4.721V159.85h23.6v30.684H73.83a7.089,7.089,0,0,0-7.081,7.081v16.522h70.81V169.291h4.721v4.721H147v-23.6Zm-30.684-9.441h14.162v4.721H111.595Zm-80.251-23.6V103.2a2.363,2.363,0,0,1,2.36-2.36H62.028a2.362,2.362,0,0,1,2.36,2.36v14.162a16.522,16.522,0,0,1-33.044,0Zm16.522,21.243a21.051,21.051,0,0,0,9.441-2.243v4.147c-.512,1.128-2.818,5.177-9.441,5.177-6.573,0-8.9-4.02-9.441-5.184v-4.14A21.055,21.055,0,0,0,47.866,138.607Zm-41.824,35.4,4.336-17.346a11.813,11.813,0,0,1,8.344-8.523l16.111-4.4c1.589,2.576,5.319,6.661,13.034,6.661s11.445-4.086,13.031-6.659l9.835,2.682a7.07,7.07,0,0,0-3.984,6.338v16.522H71.47v4.721Zm74.869,0H76.19v-4.721h4.721Zm-9.441,35.4V204.7H76.19v-4.721H71.47v-2.36a2.363,2.363,0,0,1,2.36-2.36h44.846V155.129H85.631v9.441H71.47v-11.8a2.363,2.363,0,0,1,2.36-2.36h56.648a2.362,2.362,0,0,1,2.36,2.36v47.206H80.911V204.7h51.927v4.721Zm66.089-44.846V159.85h4.721v4.721Zm0,0" transform="translate(0 -67.676)"/></g></svg>