<svg xmlns="http://www.w3.org/2000/svg" width="137.991" height="138.008" viewBox="0 0 137.991 138.008"><defs><style>.a{fill:#f0bc5e;}</style></defs><g transform="translate(-1 -0.999)"><path class="a" d="M36.708,2A26.709,26.709,0,0,0,10,28.708V42.062a6.677,6.677,0,0,1,6.677-6.677H18.9V30.934l6.677-6.677A29.653,29.653,0,0,0,48.733,35.385h8.006a6.677,6.677,0,0,1,6.677,6.677V28.708A26.709,26.709,0,0,0,36.708,2Z" transform="translate(11.031 1.226)"/><path d="M56.9,22.805H52.451V17.433l3.8-3.8a2.216,2.216,0,0,0,.652-1.576v-.381a2.226,2.226,0,0,0-4.451,0V13.9H48V11.677a6.677,6.677,0,1,1,13.354,0v.381A6.637,6.637,0,0,1,59.4,16.78L56.9,19.275Z" transform="translate(57.606 4.903)"/><path d="M50,15h4.451v4.451H50Z" transform="translate(60.057 17.16)"/><path d="M46.9,45.514A4.879,4.879,0,0,1,42.275,39.1L43.9,34.216a22.3,22.3,0,1,1,8.7,8.567l-3.087,1.965A4.84,4.84,0,0,1,46.9,45.514ZM63.258,5.452a18.747,18.747,0,0,0-3,.243,17.683,17.683,0,0,0-14.444,13.9,17.875,17.875,0,0,0,2.4,13.165l.565.892L46.5,40.5a.415.415,0,0,0,.058.383.452.452,0,0,0,.576.109l5.426-3.454,1.2.757a17.908,17.908,0,0,0,13.165,2.4,17.8,17.8,0,0,0,8.927-30.024A17.665,17.665,0,0,0,63.258,5.452Z" transform="translate(49.029 0)"/><path d="M64.171,62.547l7.071,2.911,2.128,1.18,2.159-3.895L73.289,61.5,59.4,55.765a4.425,4.425,0,0,1-2.76-4.113V49.106a30,30,0,0,0,7.218-8.562h3.91a8.9,8.9,0,1,0,0-17.805H59.764A27.3,27.3,0,0,1,38.346,12.445L36.793,10.5l-9.085,9.09v3.147a8.9,8.9,0,0,0,0,17.805h3.87a29.974,29.974,0,0,0,7.258,8.562v2.546a4.437,4.437,0,0,1-2.758,4.117L20.9,62.019A32.031,32.031,0,0,0,1,91.734V93.96H74.251V89.508H56.334L54.111,74.545l6.049,6.049ZM27.708,36.093a4.451,4.451,0,1,1,0-8.9h.047a29.349,29.349,0,0,0,1.772,8.9Zm44.513-4.451a4.456,4.456,0,0,1-4.451,4.451H65.956a29.377,29.377,0,0,0,1.745-8.9h.069A4.456,4.456,0,0,1,72.221,31.641ZM32.159,25.979V21.434L36.493,17.1A31.7,31.7,0,0,0,59.764,27.19h3.523A25.351,25.351,0,0,1,47.737,49.28a25.335,25.335,0,0,1-15.577-23.3Zm21.284,30.2-5.7,5.7-5.7-5.7a8.855,8.855,0,0,0,1.224-4.124,29.054,29.054,0,0,0,3.7,1.7l.781.294.781-.292a29.532,29.532,0,0,0,3.7-1.7,8.854,8.854,0,0,0,1.224,4.122Zm-15.669,3.71a9.147,9.147,0,0,0,1.115-.559l5.7,5.7L37.9,71.714,35.484,60.829Zm1.367,29.623H18.805v-8.9H14.354v8.9H5.54A27.586,27.586,0,0,1,22.6,66.134l8.711-3.588L35.32,80.595l6.049-6.049Zm4.5,0,3.009-20.249,1.086-1.086,1.086,1.086,3.009,20.249Zm13.93-17.794-6.688-6.688,5.7-5.7a8.838,8.838,0,0,0,1.115.559l2.29.944Z" transform="translate(0 11.647)"/><path d="M99.523,53.983l-10.7-5.693-2.105,3.922,10.725,5.7a23.587,23.587,0,0,1,12.481,18.678H25.554A23.591,23.591,0,0,1,38.035,57.916l10.714-5.707-2.112-3.917L35.954,53.983A28.032,28.032,0,0,0,21,78.819v2.226h93.478V78.819A28.032,28.032,0,0,0,99.523,53.983Z" transform="translate(24.513 57.962)"/><path class="a" d="M75.513,99.679c0-6.681,4.451-6.681,4.451-13.361s-4.451-6.681-4.451-13.363,4.451-6.677,4.451-13.352-4.451-6.67-4.451-13.341V44.038a20.031,20.031,0,0,0-40.062,0v2.226c0,6.67-4.451,6.67-4.451,13.341s4.451,6.677,4.451,13.352S31,79.637,31,86.316,35.451,93,35.451,99.677H75.513Z" transform="translate(36.77 28.199)"/><path d="M44.9,87.423H40.451A8.421,8.421,0,0,0,38.6,81.977a13.356,13.356,0,0,1,0-15.831,8.924,8.924,0,0,0,0-10.888,13.327,13.327,0,0,1,0-15.815,8.4,8.4,0,0,0,1.852-5.435H44.9a12.776,12.776,0,0,1-2.6,7.906,8.909,8.909,0,0,0,0,10.875,13.348,13.348,0,0,1,0,15.829,8.931,8.931,0,0,0,0,10.89,12.794,12.794,0,0,1,2.6,7.917Z" transform="translate(42.898 40.456)"/><path d="M48.451,87.423H44a12.8,12.8,0,0,1,2.6-7.917,8.931,8.931,0,0,0,0-10.89,13.348,13.348,0,0,1,0-15.829,8.909,8.909,0,0,0,0-10.875A12.776,12.776,0,0,1,44,34.007h4.451A8.4,8.4,0,0,0,50.3,39.442a13.327,13.327,0,0,1,0,15.816,8.924,8.924,0,0,0,0,10.888,13.356,13.356,0,0,1,0,15.831,8.421,8.421,0,0,0-1.852,5.446Z" transform="translate(52.703 40.456)"/></g></svg>