<svg xmlns="http://www.w3.org/2000/svg" width="133.065" height="133.065" viewBox="0 0 133.065 133.065"><defs><style>.a{fill:#f0bc5e;}</style></defs><g transform="translate(0)"><path class="a" d="M233.17,380.292,224.585,376,216,380.292l4.292,6.439L216,406.047h17.17l-4.292-19.316Zm0,0" transform="translate(-158.053 -275.128)"/><path d="M51.411,40.868,38.632,37.035v-3.26a15.007,15.007,0,0,0,6.439-12.31V15.024a15.023,15.023,0,0,0-30.047,0v6.439a15,15,0,0,0,6.439,12.31v3.26L7.647,41.177A10.669,10.669,0,0,0,0,51.458V68.679H4.293V51.458a6.4,6.4,0,0,1,4.589-6.166L22.7,41.145a9.334,9.334,0,0,0,7.346,3.926,9.334,9.334,0,0,0,7.346-3.926L50.176,44.98ZM30.047,4.292A10.744,10.744,0,0,1,40.778,15.024H30.936a5.217,5.217,0,0,1-3.664-1.517l-1.517-1.517-1.517,1.517a5.217,5.217,0,0,1-3.664,1.517H19.316A10.744,10.744,0,0,1,30.047,4.292ZM19.316,21.462V19.316h1.258a9.4,9.4,0,0,0,5.181-1.538,9.4,9.4,0,0,0,5.181,1.538h9.842v2.146a10.731,10.731,0,0,1-21.462,0ZM30.047,40.778c-2.281,0-3.76-1.917-4.292-2.736V35.855a14.894,14.894,0,0,0,8.585,0V38.04C33.807,38.863,32.328,40.778,30.047,40.778Zm0,0" transform="translate(0 0)"/><path d="M348.131,41.179l-13.815-4.145v-3.26a15.007,15.007,0,0,0,6.439-12.31V15.023a15.023,15.023,0,1,0-30.047,0v6.439a15,15,0,0,0,6.439,12.31v3.26l-12.779,3.833,1.234,4.112,12.783-3.836a8.835,8.835,0,0,0,14.692,0L346.9,45.291a6.4,6.4,0,0,1,4.587,6.166V68.679h4.292V51.458a10.665,10.665,0,0,0-7.647-10.278Zm-22.4-36.887a10.744,10.744,0,0,1,10.731,10.731H335.2a5.217,5.217,0,0,1-3.664-1.517l-1.517-1.517-1.517,1.517a5.217,5.217,0,0,1-3.664,1.517H315A10.744,10.744,0,0,1,325.731,4.292ZM315,21.462V19.316h9.842a9.4,9.4,0,0,0,5.181-1.538,9.4,9.4,0,0,0,5.181,1.538h1.258v2.146a10.731,10.731,0,0,1-21.462,0Zm10.731,19.316c-2.286,0-3.766-1.923-4.292-2.736V35.853a14.871,14.871,0,0,0,8.585,0V38.04c-.532.824-2.011,2.738-4.292,2.738Zm0,0" transform="translate(-222.713 0)"/><path class="a" d="M196.1,136.874l-1.577-1.577A24.91,24.91,0,0,0,152,152.909v11.577h2.2a8.366,8.366,0,0,1-.008-.844A8.832,8.832,0,0,1,163.1,155.9h9.062a25.563,25.563,0,0,0,14.178-4.292l2.146,4.292h3.924a8.832,8.832,0,0,1,8.913,7.741,8.376,8.376,0,0,1-.008.844h2.2V147.664A11.549,11.549,0,0,0,196.1,136.874Zm0,0" transform="translate(-111.222 -93.661)"/><path d="M184,0h4.292V4.292H184Zm0,0" transform="translate(-134.637)"/><path d="M184,32h4.292V55.608H184Zm0,0" transform="translate(-134.637 -23.415)"/><path d="M296,0h4.292V4.292H296Zm0,0" transform="translate(-216.591)"/><path d="M296,32h4.292V55.608H296Zm0,0" transform="translate(-216.591 -23.415)"/><path d="M216,32h4.292V47.023H216Zm0,0" transform="translate(-158.053 -23.415)"/><path d="M216,104h4.292v4.292H216Zm0,0" transform="translate(-158.053 -76.099)"/><path d="M264,32h4.292V47.023H264Zm0,0" transform="translate(-193.175 -23.415)"/><path d="M264,104h4.292v4.292H264Zm0,0" transform="translate(-193.175 -76.099)"/><path d="M125.418,233.179,111.6,229.035v-3.26a15.007,15.007,0,0,0,6.439-12.31v-6.439a15.013,15.013,0,0,0-29.553-3.75,11.308,11.308,0,0,0-7.3-2.691h-2.6l-2.64-5.28-2.023,1.348a23.334,23.334,0,0,1-12.986,3.932H51.878a11.307,11.307,0,0,0-7.3,2.689,15.014,15.014,0,0,0-29.555,3.75v6.439a15,15,0,0,0,6.439,12.31v3.26L7.647,233.177A10.669,10.669,0,0,0,0,243.458v19.367H25.754a2.15,2.15,0,0,1,2.146,2.146v8.585h77.263v-8.585a2.15,2.15,0,0,1,2.146-2.146h25.754V243.458a10.665,10.665,0,0,0-7.647-10.278Zm-18.108-3.138c-.532.822-2.011,2.736-4.292,2.736s-3.766-1.923-4.292-2.736v-2.189a14.871,14.871,0,0,0,8.585,0Zm-54.863,3.138-13.815-4.145v-3.26a15.1,15.1,0,0,0,5.392-6.836,10.677,10.677,0,0,0,6.57,3.012,17.211,17.211,0,0,0,5.21,7.039v4.228l-2.028.467a10.793,10.793,0,0,0-1.329-.506Zm20.524.672-6.439,4.829-6.439-4.829v-2.337a17.033,17.033,0,0,0,12.877,0ZM57.458,237.24l5.232,3.926-5.382,3.23-1.361-6.805Zm18.148,0,1.511.348-1.361,6.805-5.382-3.23Zm3.685-3.555-2.028-.467V228.99a17.259,17.259,0,0,0,5.211-7.039,10.694,10.694,0,0,0,6.569-3.012,15.089,15.089,0,0,0,5.392,6.836v3.26l-13.813,4.145a10.446,10.446,0,0,0-1.331.506Zm23.727-9.492a10.744,10.744,0,0,1-10.731-10.731v-2.146h1.258a9.4,9.4,0,0,0,5.181-1.538,9.4,9.4,0,0,0,5.181,1.538h9.842v2.146A10.744,10.744,0,0,1,103.018,224.193Zm0-27.9a10.744,10.744,0,0,1,10.731,10.731h-9.842a5.217,5.217,0,0,1-3.664-1.517l-1.517-1.517-1.517,1.517a5.217,5.217,0,0,1-3.664,1.517H92.287a10.744,10.744,0,0,1,10.731-10.731ZM87.962,210.677a6.334,6.334,0,0,1-4.352,6.7,17.405,17.405,0,0,0,.092-1.773v-10.27a6.481,6.481,0,0,1,4.26,5.338Zm-13.725-9.2,1.7,3.4h3.473v10.731a12.877,12.877,0,1,1-25.754,0V204.877h7.286a27.593,27.593,0,0,0,13.3-3.4Zm-24.874,3.859v10.27a17.4,17.4,0,0,0,.092,1.773,6.347,6.347,0,0,1-.092-12.043Zm-19.316-9.046a10.744,10.744,0,0,1,10.731,10.731H39.52a5.217,5.217,0,0,1-3.664-1.517l-1.517-1.517-1.517,1.517a5.217,5.217,0,0,1-3.664,1.517H19.316a10.744,10.744,0,0,1,10.731-10.731Zm-10.731,17.17v-2.146h9.842a9.4,9.4,0,0,0,5.181-1.538,9.4,9.4,0,0,0,5.181,1.538h1.258v2.146a10.731,10.731,0,1,1-21.462,0Zm10.731,15.023a14.932,14.932,0,0,0,4.292-.633v2.187c-.532.824-2.011,2.738-4.292,2.738s-3.76-1.917-4.292-2.736v-2.187A15,15,0,0,0,30.047,228.485Zm98.725,30.047h-8.585V243.509h-4.292v15.023H107.31a6.447,6.447,0,0,0-6.439,6.439v4.292H90.14v-17.17H85.848v17.17H47.216v-17.17H42.924v17.17H32.193v-4.292a6.447,6.447,0,0,0-6.439-6.439H17.169V243.509H12.877v15.023H4.292V243.458a6.4,6.4,0,0,1,4.589-6.166L22.7,233.145a9.334,9.334,0,0,0,7.346,3.926,9.334,9.334,0,0,0,7.346-3.926l8.138,2.443-5.986,1.38A14.957,14.957,0,0,0,27.9,251.606v2.634h4.292v-2.634a10.685,10.685,0,0,1,8.319-10.456l11.251-2.6,2.53,12.654,12.24-7.342,12.238,7.342,2.53-12.654,11.253,2.6a10.685,10.685,0,0,1,8.319,10.456v2.634h4.292v-2.634a14.957,14.957,0,0,0-11.645-14.639l-5.986-1.38,8.138-2.443a8.836,8.836,0,0,0,14.692,0l13.821,4.147a6.4,6.4,0,0,1,4.587,6.166Zm0,0" transform="translate(0 -140.491)"/></g></svg>